<?xml version="1.0" encoding="UTF-8" standalone="no"?>
<!DOCTYPE svg PUBLIC "-//W3C//DTD SVG 20010904//EN"
              "http://www.w3.org/TR/2001/REC-SVG-20010904/DTD/svg10.dtd">

<svg xmlns="http://www.w3.org/2000/svg"
     width="0.888889in" height="0.888889in"
     viewBox="0 0 64 64">
  <path id="Selection #5"
        fill="none" stroke="black" stroke-width="1"
        d="M 49.68,47.85
           C 52.89,50.45 51.39,54.16 46.98,55.43
             39.73,57.51 31.07,50.78 41.02,46.57
             43.93,46.11 47.19,45.84 49.68,47.85 Z
           M 23.68,47.85
           C 26.89,50.45 25.39,54.16 20.98,55.43
             13.73,57.51 5.07,50.78 15.02,46.57
             17.93,46.11 21.19,45.84 23.68,47.85 Z
           M 25.25,49.63
           C 24.18,49.42 14.89,8.37 27.25,10.75
             27.25,10.75 50.00,11.75 50.00,11.75
             31.07,18.06 51.44,50.69 51.63,50.63" />
</svg>
