<?xml version="1.0" encoding="UTF-8" standalone="no"?>
<!DOCTYPE svg PUBLIC "-//W3C//DTD SVG 20010904//EN"
              "http://www.w3.org/TR/2001/REC-SVG-20010904/DTD/svg10.dtd">

<svg xmlns="http://www.w3.org/2000/svg"
     width="0.888889in" height="0.888889in"
     viewBox="0 0 64 64">
  <path id="Unnamed #12"
        fill="none" stroke="black" stroke-width="1"
        d="M 54.45,31.36
           C 54.45,31.36 59.82,24.27 59.82,24.27M 55.18,24.09
           C 55.18,24.09 60.00,31.27 60.00,31.27M 33.64,6.91
           C 33.64,6.91 27.91,6.91 27.91,6.91M 34.00,4.00
           C 34.00,4.00 28.00,4.00 28.00,4.00
             28.00,4.00 28.00,10.00 28.00,10.00M 10.18,23.27
           C 7.72,22.35 -3.54,25.46 6.64,28.55
             13.45,31.43 7.82,35.00 3.27,34.45M 10.55,22.64M 48.00,56.00
           C 48.00,56.00 56.00,48.09 56.00,48.09M 8.00,46.00
           C 8.00,46.00 16.00,56.00 16.00,56.00M 48.00,8.00
           C 47.91,8.00 56.00,16.00 56.00,16.00M 8.00,16.00
           C 8.00,16.00 16.00,8.00 16.00,8.00M 34.96,39.26
           C 26.39,42.62 18.85,30.67 29.04,24.74
             41.35,22.03 42.80,36.18 34.96,39.26 Z
           M 46.67,18.18
           C 56.20,28.34 52.82,48.33 36.00,51.53
             14.82,55.57 4.55,30.12 18.18,17.33
             21.31,14.39 23.96,13.45 28.00,12.47
             35.06,11.50 41.60,12.78 46.67,18.18 Z" />
		<path id="Unnamed"
        fill="none" stroke="red" stroke-width="2"
        d="M 8.00,8.00
           C 8.00,8.00 56.00,56.00 56.00,56.00" />
</svg>
